<svg xmlns="http://www.w3.org/2000/svg" width="30" height="30" fill="none" viewBox="0 0 30 30">
  <path stroke="#36AA8E" stroke-linecap="round" stroke-linejoin="round" stroke-width="2" d="M13.743 9.092C14.149 9.032 14.569 9 15 9c5.105 0 8.455 4.505 9.58 6.287.137.215.205.323.243.49a1.16 1.16 0 0 1 0 .447c-.038.166-.107.274-.244.492-.3.474-.757 1.141-1.363 1.864M9.724 10.716c-2.162 1.467-3.63 3.504-4.303 4.57-.137.217-.205.325-.243.492a1.173 1.173 0 0 0 0 .446c.038.167.106.274.242.49C6.546 18.495 9.895 23 15 23c2.059 0 3.832-.732 5.289-1.723M6 7l18 18M12.88 13.879a3 3 0 0 0 4.243 4.243"/>
</svg>
