<svg xmlns="http://www.w3.org/2000/svg" width="24" height="24" fill="none" viewBox="0 0 24 24">
  <path fill="#36AA8E" d="M7.003 12.006c0-.554.45-.997 1.003-.997h5.003c.554 0 .997.45.997.997 0 .554-.45 1.003-.997 1.003H8.006a1.011 1.011 0 0 1-1.003-1.003Zm0-4.006c0-.554.45-1.003 1.003-1.003h8.006c.554 0 .997.45.997 1.003 0 .554-.45 1.003-.997 1.003H8.006c-.554 0-1.003-.45-1.003-1.003ZM5.89 2.357c-1.858.221-3.292 1.735-3.569 3.65A31.068 31.068 0 0 0 2 10.264v.252c.007 1.428.117 2.862.333 4.29a4.085 4.085 0 0 0 3.55 3.433c.973.117 1.95.203 2.923.259a.296.296 0 0 1 .216.116l2.129 2.942c.43.59 1.298.59 1.729 0l2.141-2.942c.05-.067.13-.11.216-.116a58.096 58.096 0 0 0 2.91-.259c1.785-.21 3.194-1.6 3.47-3.434.462-3.021.53-6.043.068-9.058a4.033 4.033 0 0 0-3.5-3.385A52 52 0 0 0 12.005 2c-2.03 0-4.074.117-6.117.357Z"/>
</svg>
