<svg xmlns="http://www.w3.org/2000/svg" width="24" height="24" fill="none" viewBox="0 0 24 24">
  <path fill="#36AA8E" d="M20 10.994c0 .418-.006.837-.006 1.003 0 1.126-.043 2.27-.142 3.402a4.89 4.89 0 0 1-4.478 4.454 43.95 43.95 0 0 1-3.37.148.992.992 0 0 0-1.004.99c0 .548.443 1.009.997 1.009 1.175 0 2.35-.055 3.525-.148 3.322-.264 6.04-2.873 6.324-6.195.104-1.218.153-2.442.153-3.66V11a.998.998 0 0 0-.996-1.002c-.554 0-1.003.449-1.003.996ZM9.998 2c-1.47 0-2.94.092-4.405.283C3.877 2.504 2.48 3.95 2.26 5.777a34.697 34.697 0 0 0 0 8.453c.221 1.827 1.618 3.273 3.334 3.494 1.47.191 2.934.283 4.405.283 1.47 0 2.94-.092 4.404-.283 1.717-.221 3.113-1.667 3.334-3.494a34.706 34.706 0 0 0 0-8.453c-.221-1.827-1.617-3.273-3.334-3.494A34.084 34.084 0 0 0 9.998 2Z"/>
</svg>
