<svg xmlns="http://www.w3.org/2000/svg" width="24" height="24" fill="none" viewBox="0 0 24 24">
  <path fill="#135D51" d="M8 14.992a1.001 1.001 0 0 0 0 2.002h7.997c.555 0 1-.446 1-1a.998.998 0 0 0-1-1.002H8Zm0-3.995a1.001 1.001 0 0 0 0 2h7.997a1.001 1.001 0 0 0 0-2.001H8Zm0-4.002a1.001 1.001 0 0 0 0 2h7.997a1.001 1.001 0 0 0 0-2.001H8Zm-.22 12.78a4.006 4.006 0 0 1-3.563-3.562 41.488 41.488 0 0 1 0-8.438A4.006 4.006 0 0 1 7.78 4.213a40.764 40.764 0 0 1 8.437 0 4.006 4.006 0 0 1 3.563 3.562c.286 2.8.286 5.637 0 8.438a4.006 4.006 0 0 1-3.563 3.563c-1.397.14-2.818.213-4.215.213a39.208 39.208 0 0 1-4.222-.213Zm-.2-17.55a6.007 6.007 0 0 0-5.35 5.35 42.874 42.874 0 0 0 0 8.846 6.007 6.007 0 0 0 5.35 5.35c1.476.153 2.946.226 4.423.226 1.47 0 2.946-.073 4.422-.226a6.001 6.001 0 0 0 5.35-5.35c.147-1.403.22-2.812.226-4.216v-.408a44.356 44.356 0 0 0-.226-4.216 6.007 6.007 0 0 0-5.35-5.35 42.947 42.947 0 0 0-4.422-.226 41.287 41.287 0 0 0-4.423.22Z"/>
</svg>
