<svg xmlns="http://www.w3.org/2000/svg" width="22" height="20" fill="none" viewBox="0 0 22 20">
  <g clip-path="url(#a)">
    <path fill="#36AA8E" d="M10.32.323h7.769c1.233.001 1.934.695 1.91 1.939-.105 5.2-.024 10.4-.049 15.6-.003.616-.184 1.124-.7 1.485-.325.227-.69.323-1.08.324-1.308.003-2.616-.008-3.925.006-.354.004-.474-.119-.472-.476.012-2.252.014-4.505 0-6.757-.003-.4.137-.522.522-.509.695.023 1.39 0 2.085.004.347.001.524-.116.506-.507-.028-.6-.023-1.202 0-1.802.013-.351-.131-.445-.457-.438-.722.017-1.445-.011-2.167.013-.385.012-.505-.138-.486-.504.023-.422.018-.844.071-1.266.093-.73.536-1.225 1.257-1.366a5.007 5.007 0 0 1 1.343-.082c.31.023.448-.085.44-.415-.017-.64-.01-1.283-.003-1.924.002-.229-.07-.349-.321-.37-1.097-.09-2.178-.015-3.234.302-1.243.373-1.849 1.322-2.208 2.486-.252.817-.297 1.663-.324 2.509-.02.62-.008.62-.646.622-.34 0-.681.01-1.022-.003-.271-.01-.4.083-.394.375.013.669.013 1.338 0 2.006-.006.298.132.376.399.37.45-.012.9.004 1.349-.004.246-.005.326.09.325.341-.012 2.293-.02 4.587-.007 6.88.002.398-.135.516-.52.515-2.617-.012-5.234 0-7.85-.008-1.101-.003-1.803-.695-1.804-1.794-.01-5.27-.01-10.539-.005-15.808C.623 1.026 1.338.33 2.387.328 5.031.322 7.676.326 10.32.326V.323Z"/>
  </g>
  <defs>
    <clipPath id="a">
      <path fill="#fff" d="M.619.323h20.968v19.355H.619z"/>
    </clipPath>
  </defs>
</svg>
