<svg xmlns="http://www.w3.org/2000/svg" width="24" height="24" fill="none" viewBox="0 0 24 24">
  <path fill="#135D51" d="M14.752 16.25a1.001 1.001 0 0 0 0 2.001h2a.998.998 0 0 0 1.002-1 .998.998 0 0 0-1.001-1.001h-2.001Zm0-3.496a1.001 1.001 0 0 0 0 2h4.002a1.001 1.001 0 0 0 0-2h-4.002Zm0-3.503c-.55 0-1 .452-1 1 0 .55.45 1.002 1 1.002h5.997a1.001 1.001 0 0 0 0-2.001h-5.997Zm-2.44-4.07C11.175 3.84 9.455 3.003 7.655 3.003 4.483 3.003 2 5.463 2 8.604c0 3.314 2.648 5.821 6.656 9.629a212.16 212.16 0 0 1 2.587 2.483 1.004 1.004 0 0 0 1.416-.012 1.002 1.002 0 0 0-.012-1.416c-.922-.903-1.782-1.72-2.612-2.507-3.63-3.448-6.034-5.73-6.034-8.177 0-2.056 1.574-3.6 3.655-3.6 1.55 0 3.075.977 3.697 2.374.165.378.543.622.958.622.415 0 .787-.244.958-.622.622-1.397 2.142-2.374 3.697-2.374 1.349 0 2.532.653 3.173 1.752A.999.999 0 0 0 22 6.28v-.061a1.06 1.06 0 0 0-.134-.476c-1-1.72-2.831-2.746-4.9-2.746-1.8 0-3.52.836-4.655 2.184Z"/>
</svg>
