<svg xmlns="http://www.w3.org/2000/svg" width="24" height="24" fill="none" viewBox="0 0 24 24">
  <path fill="#135D51" d="M4.892 19.926a.933.933 0 0 1-.818-.817 17.75 17.75 0 0 1 0-3.22.927.927 0 0 1 .818-.818 17.773 17.773 0 0 1 3.22 0c.42.037.774.396.817.817a17.75 17.75 0 0 1 0 3.22.933.933 0 0 1-.817.818 17.773 17.773 0 0 1-3.22 0Zm-.183-6.843a2.925 2.925 0 0 0-2.623 2.622 19.57 19.57 0 0 0 0 3.587 2.925 2.925 0 0 0 2.623 2.623c.597.055 1.195.085 1.793.085.597 0 1.195-.03 1.793-.085a2.925 2.925 0 0 0 2.622-2.623c.11-1.196.11-2.391 0-3.587a2.925 2.925 0 0 0-2.622-2.622 19.634 19.634 0 0 0-1.793-.086c-.598.006-1.196.03-1.793.086Zm11.18 6.843a.927.927 0 0 1-.818-.817 17.748 17.748 0 0 1 0-3.22.927.927 0 0 1 .817-.818 17.675 17.675 0 0 1 3.22 0 .928.928 0 0 1 .818.817 17.748 17.748 0 0 1 0 3.22.933.933 0 0 1-.818.818 17.772 17.772 0 0 1-3.22 0Zm-.184-6.843a2.925 2.925 0 0 0-2.622 2.622 19.566 19.566 0 0 0 0 3.587 2.925 2.925 0 0 0 2.622 2.623c.598.055 1.196.085 1.793.085.598 0 1.196-.03 1.793-.085a2.925 2.925 0 0 0 2.623-2.623c.11-1.196.11-2.391 0-3.587a2.925 2.925 0 0 0-2.623-2.622 19.634 19.634 0 0 0-1.793-.086 22.09 22.09 0 0 0-1.793.086ZM4.892 8.929a.933.933 0 0 1-.818-.817 17.75 17.75 0 0 1 0-3.22.927.927 0 0 1 .818-.818 17.773 17.773 0 0 1 3.22 0c.42.036.774.396.817.817a17.75 17.75 0 0 1 0 3.22.921.921 0 0 1-.817.818 17.773 17.773 0 0 1-3.22 0Zm-.183-6.844a2.925 2.925 0 0 0-2.623 2.623 19.57 19.57 0 0 0 0 3.587 2.925 2.925 0 0 0 2.623 2.622c.597.055 1.195.086 1.793.086.597 0 1.195-.03 1.793-.086a2.925 2.925 0 0 0 2.622-2.622c.11-1.196.11-2.391 0-3.587a2.925 2.925 0 0 0-2.622-2.623A19.602 19.602 0 0 0 6.502 2a22.05 22.05 0 0 0-1.793.085Zm11.18 6.844a.927.927 0 0 1-.818-.817 17.748 17.748 0 0 1 0-3.22.927.927 0 0 1 .817-.818 17.675 17.675 0 0 1 3.22 0 .927.927 0 0 1 .818.817 17.748 17.748 0 0 1 0 3.22.921.921 0 0 1-.818.818 17.772 17.772 0 0 1-3.22 0Zm-.184-6.844a2.925 2.925 0 0 0-2.622 2.623 19.566 19.566 0 0 0 0 3.587 2.925 2.925 0 0 0 2.622 2.622c.598.055 1.196.086 1.793.086.598 0 1.196-.03 1.793-.086a2.925 2.925 0 0 0 2.623-2.622c.11-1.196.11-2.391 0-3.587a2.925 2.925 0 0 0-2.623-2.623A19.602 19.602 0 0 0 17.498 2a22.05 22.05 0 0 0-1.793.085Z"/>
</svg>
