<svg xmlns="http://www.w3.org/2000/svg" width="24" height="24" fill="none" viewBox="0 0 24 24">
  <path fill="#36AA8E" d="M16.51 2.996c-1.747 0-3.402.831-4.504 2.136-1.095-1.305-2.757-2.136-4.504-2.136C4.412 2.996 2 5.403 2 8.56c0 .935.222 1.84.646 2.757.61 1.292 1.606 2.566 3.237 4.252.806.837 4.29 4.228 5.052 4.992.283.283.653.43 1.028.443h.074c.375-.007.75-.154 1.028-.444.763-.763 4.246-4.16 5.052-4.99 1.63-1.687 2.628-2.96 3.237-4.253.43-.91.646-1.822.646-2.757.012-3.151-2.406-5.564-5.49-5.564Z"/>
</svg>
