<svg xmlns="http://www.w3.org/2000/svg" width="24" height="24" fill="none" viewBox="0 0 24 24">
  <path fill="#36AA8E" d="M11.047 16.765v-5.712a.954.954 0 0 1 1.906 0v5.712a.95.95 0 0 1-.953.953.961.961 0 0 1-.953-.953Zm.535-8.594a.58.58 0 0 1-.512-.511 4.077 4.077 0 0 1 0-.843.575.575 0 0 1 .512-.511c.279-.03.563-.03.842 0a.58.58 0 0 1 .511.511c.03.279.03.564 0 .843a.57.57 0 0 1-.51.51c-.14.012-.28.024-.42.024a9.835 9.835 0 0 1-.423-.023ZM12 2C6.474 2 2 6.474 2 12s4.48 10 10 10c5.526 0 10-4.48 10-10S17.525 2 12 2Z"/>
</svg>
