<svg xmlns="http://www.w3.org/2000/svg" width="20" height="20" fill="none" viewBox="0 0 20 20">
  <path fill="#36AA8E" d="M19.65 5.782c-.001 2.812.004 5.623-.001 8.436-.005 2.71-1.745 4.844-4.387 5.377-.35.07-.714.084-1.075.082l-8.294-.001c-2.736-.001-4.822-1.698-5.391-4.391-.077-.364-.089-.74-.089-1.112C.416 12.782.415 11.39.415 10c0-1.391-.002-2.782 0-4.174C.417 3.081 2.116.973 4.787.41A5.26 5.26 0 0 1 5.863.323c2.774 0 5.549-.002 8.324 0 2.723.004 4.834 1.73 5.38 4.406.07.345.083.7.083 1.053Zm-1.704 8.387c.005-2.782.004-5.562-.001-8.343-.001-.453-.043-.902-.2-1.335-.567-1.557-1.863-2.451-3.584-2.454a2932.54 2932.54 0 0 0-8.262.001c-.31 0-.622.013-.925.086-1.758.421-2.849 1.813-2.855 3.678-.01 2.8-.004 5.601 0 8.403 0 .694.132 1.36.5 1.96.746 1.216 1.846 1.794 3.255 1.798 1.381.004 2.763.001 4.146.001 1.372 0 2.744.003 4.115-.001.321-.001.643-.012.956-.087 1.768-.424 2.851-1.825 2.855-3.707Z"/>
  <path fill="#36AA8E" d="M15.188 3.57a1.258 1.258 0 0 1 1.264 1.255 1.27 1.27 0 0 1-1.247 1.246 1.261 1.261 0 0 1-1.26-1.26 1.247 1.247 0 0 1 1.243-1.241Zm-5.161 1.447c2.728-.006 4.96 2.238 4.957 4.985-.001 2.75-2.236 4.992-4.962 4.98a4.976 4.976 0 0 1-4.943-5c.02-2.747 2.222-4.958 4.948-4.965Zm3.255 4.991c0-1.798-1.454-3.272-3.234-3.276a3.267 3.267 0 0 0-3.265 3.275c.003 1.795 1.465 3.261 3.25 3.261 1.783 0 3.246-1.468 3.248-3.26Z"/>
</svg>
