<svg xmlns="http://www.w3.org/2000/svg" width="24" height="24" fill="none" viewBox="0 0 24 24">
  <path fill="#36AA8E" d="M10 11.997a2 2 0 1 0 3.998 0 2 2 0 0 0-3.997 0Zm-2.004 0a3.998 3.998 0 1 1 3.998 3.998 3.995 3.995 0 0 1-3.998-3.998ZM10.83 2.05c-.806.092-1.47.646-1.673 1.39A2.401 2.401 0 0 1 7.99 4.88a2.655 2.655 0 0 1-2.042.24 2.05 2.05 0 0 0-2.104.62c-.338.376-.646.77-.922 1.188a9.652 9.652 0 0 0-.788 1.575 1.86 1.86 0 0 0 .48 2.067c.535.455.849 1.1.855 1.777a2.4 2.4 0 0 1-.701 1.686 1.8 1.8 0 0 0-.338 2.06 10.01 10.01 0 0 0 1.07 1.754c.517.67 1.427.947 2.251.69 1.341-.425 2.787.27 3.236 1.543.037.105.061.21.086.314.098.541.443 1.021.941 1.304.234.123.492.197.757.221.412.05.818.074 1.23.08h.172c.345-.006.69-.024 1.034-.055.787-.092 1.44-.627 1.654-1.353a2.4 2.4 0 0 1 1.15-1.403 2.658 2.658 0 0 1 2.043-.24 2.03 2.03 0 0 0 2.085-.615 9.752 9.752 0 0 0 1.76-2.842l-.031.012a1.86 1.86 0 0 0-.48-2.067 2.34 2.34 0 0 1-.148-3.426c.006-.012.019-.019.025-.03.541-.56.677-1.373.338-2.062a10.024 10.024 0 0 0-1.015-1.691c-.517-.69-1.451-.966-2.294-.69-1.329.45-2.787-.209-3.26-1.47a2.466 2.466 0 0 1-.111-.418c-.148-.83-.849-1.476-1.735-1.575A11.26 11.26 0 0 0 11.902 2c-.357 0-.714.013-1.07.05Z"/>
</svg>
