<svg xmlns="http://www.w3.org/2000/svg" width="24" height="24" fill="none" viewBox="0 0 24 24">
  <path fill="#36AA8E" d="M4.713 13.089a2.94 2.94 0 0 0-2.63 2.632 19.244 19.244 0 0 0-.025 3.26 3.203 3.203 0 0 0 2.969 2.964 19.713 19.713 0 0 0 3.27-.025 2.917 2.917 0 0 0 2.62-2.62c.11-1.2.11-2.392 0-3.591a2.922 2.922 0 0 0-2.62-2.62 19.362 19.362 0 0 0-1.795-.087c-.596 0-1.192.031-1.789.087Zm10.992 0a2.93 2.93 0 0 0-2.625 2.632 19.236 19.236 0 0 0-.025 3.26 3.208 3.208 0 0 0 2.97 2.964 19.713 19.713 0 0 0 3.27-.025 2.928 2.928 0 0 0 2.625-2.62c.055-.578.08-1.15.08-1.728v-.135c0-.579-.03-1.15-.08-1.729a2.928 2.928 0 0 0-2.625-2.62 19.362 19.362 0 0 0-1.795-.085c-.602 0-1.199.03-1.795.086Zm0-10.997a2.935 2.935 0 0 0-2.631 2.632 19.236 19.236 0 0 0-.025 3.26 3.208 3.208 0 0 0 2.97 2.964c.491.037.983.056 1.475.056.596 0 1.192-.031 1.795-.086a2.917 2.917 0 0 0 2.619-2.62c.055-.597.08-1.2.08-1.796 0-.597-.025-1.193-.08-1.796a2.922 2.922 0 0 0-2.619-2.62A19.483 19.483 0 0 0 17.494 2c-.596.006-1.193.037-1.789.092Zm-9.203-.086c-.596 0-1.192.025-1.789.08a2.941 2.941 0 0 0-2.63 2.632 19.244 19.244 0 0 0-.025 3.26 3.203 3.203 0 0 0 2.969 2.964c.492.037.983.056 1.475.056.596 0 1.193-.025 1.795-.087a2.917 2.917 0 0 0 2.62-2.62 19.58 19.58 0 0 0 0-3.591 2.922 2.922 0 0 0-2.62-2.62 25.168 25.168 0 0 0-1.795-.074Z"/>
</svg>
