<svg xmlns="http://www.w3.org/2000/svg" width="24" height="24" fill="none" viewBox="0 0 24 24">
  <path fill="#36AA8E" d="M6.999 16c0-.554.449-1.003.996-1.003h8.002c.554 0 1.003.449 1.003 1.002a.997.997 0 0 1-1.003.996H7.995A1 1 0 0 1 7 16Zm0-4.003c0-.553.449-.996.996-.996h8.002c.554 0 1.003.449 1.003.996 0 .553-.45 1.002-1.003 1.002H7.995A1 1 0 0 1 7 11.997Zm0-3.996c0-.554.449-.996.996-.996h8.002A1 1 0 0 1 17 8.001c0 .553-.45 1.002-1.003 1.002H7.995A1 1 0 0 1 7 8Zm.578-5.767a6.003 6.003 0 0 0-5.351 5.349 43.34 43.34 0 0 0 0 8.84 6.003 6.003 0 0 0 5.351 5.35 44.5 44.5 0 0 0 4.336.227h.172a44.676 44.676 0 0 0 4.337-.227 6.003 6.003 0 0 0 5.35-5.35c.142-1.395.216-2.79.228-4.186v-.474a41.506 41.506 0 0 0-.228-4.187 6.003 6.003 0 0 0-5.35-5.349A42.61 42.61 0 0 0 11.999 2c-1.476.006-2.946.08-4.422.234Z"/>
</svg>
