<svg xmlns="http://www.w3.org/2000/svg" width="16" height="20" fill="none" viewBox="0 0 16 20">
  <path fill="#CCFFF3" d="M3.39 11.328c-1.807.259-3.24 1.76-3.363 3.586a9.26 9.26 0 0 0 0 1.168C.15 17.91 1.583 19.41 3.39 19.668c1.506.215 3.013.326 4.52.332h.178a32.802 32.802 0 0 0 4.52-.332c1.808-.258 3.241-1.759 3.364-3.586.012-.166.018-.332.018-.504v-.166a7.2 7.2 0 0 0-.018-.504c-.123-1.827-1.556-3.327-3.364-3.586a32.319 32.319 0 0 0-4.612-.332 33.154 33.154 0 0 0-4.606.338ZM8.004 0a5 5 0 1 0 0 10 5 5 0 0 0 0-10Z"/>
</svg>
