<svg xmlns="http://www.w3.org/2000/svg" width="24" height="24" fill="none" viewBox="0 0 24 24">
  <path fill="#36AA8E" d="M8.004 9.989c0-.554.449-1.003 1.002-1.003h2v-2a.997.997 0 1 1 1.994 0v2h2c.553 0 .996.449.996 1.003 0 .554-.449 1.003-.997 1.003h-2v2c0 .553-.449 1.003-.996 1.003a.998.998 0 0 1-.997-1.003v-2h-2a1.007 1.007 0 0 1-1.002-1.003Zm-2.11-7.643c-1.86.222-3.293 1.736-3.57 3.65a31.08 31.08 0 0 0-.32 4.263v.253a29.68 29.68 0 0 0 .333 4.289 4.085 4.085 0 0 0 3.544 3.433c.978.117 1.95.203 2.922.265a.29.29 0 0 1 .216.117l2.129 2.941c.43.59 1.298.59 1.729 0l2.14-2.941a.294.294 0 0 1 .216-.117 57.43 57.43 0 0 0 2.91-.259c1.785-.209 3.194-1.6 3.47-3.433.462-3.021.53-6.037.069-9.058a4.033 4.033 0 0 0-3.502-3.384 51.998 51.998 0 0 0-6.177-.363 48.491 48.491 0 0 0-6.11.344Z"/>
</svg>
