<svg xmlns="http://www.w3.org/2000/svg" width="24" height="24" fill="none" viewBox="0 0 24 24">
  <path fill="#36AA8E" stroke="#36AA8E" d="M20.5 16.829a1.503 1.503 0 0 0-2.623-1.467 7.148 7.148 0 0 1-6.255 3.64c-3.945 0-7.122-3.147-7.122-7.005 0-3.857 3.182-7 7.128-7 2.04 0 3.927.853 5.248 2.271a1.503 1.503 0 0 0-1.219 1.048 1.504 1.504 0 0 0 1.001 1.872l3.206.966.015.005.017.004.007.001.07.017.008.001a.88.88 0 0 0 .025.006l.035.007.024.004c1.077.182 2.048-.561 2.142-1.623l.287-3.291a1.496 1.496 0 0 0-1.359-1.625 1.5 1.5 0 0 0-1.582 1.112 10.152 10.152 0 0 0-7.925-3.775c-5.58 0-10.122 4.469-10.128 10-.006 5.53 4.536 10.006 10.122 10.006 3.728 0 7.107-2.006 8.878-5.174Z"/>
</svg>
