<svg xmlns="http://www.w3.org/2000/svg" width="24" height="24" fill="none" viewBox="0 0 24 24">
  <path fill="red" d="M8.846 16.21v-5.266a1.049 1.049 0 1 1 2.098 0v5.266a1.049 1.049 0 1 1-2.098 0Zm4.21 0v-5.266c0-.583.472-1.049 1.049-1.049.583 0 1.055.473 1.055 1.05v5.265a1.05 1.05 0 0 1-1.055 1.05 1.045 1.045 0 0 1-1.05-1.05ZM4.106 5.154a1.05 1.05 0 0 0-1.05 1.056c0 .583.473 1.05 1.05 1.05h.725a56.83 56.83 0 0 0 .11 10.66c.2 1.884 1.593 3.426 3.393 3.75a20.503 20.503 0 0 0 7.319 0c1.8-.324 3.192-1.872 3.393-3.75.376-3.537.415-7.112.117-10.66h.725c.583 0 1.056-.474 1.056-1.05 0-.583-.473-1.056-1.056-1.056H4.105ZM9.895 2a1.05 1.05 0 0 0-1.05 1.056c0 .583.473 1.055 1.05 1.055h4.209a1.056 1.056 0 0 0 0-2.111h-4.21Z"/>
</svg>
