<svg xmlns="http://www.w3.org/2000/svg" width="24" height="24" fill="none" viewBox="0 0 24 24">
  <path fill="#CCFFF3" d="M4.358 10.231a5.888 5.888 0 0 1 5.884-5.884 5.888 5.888 0 0 1 5.884 5.884 5.883 5.883 0 1 1-11.768 0Zm-2.354 0c0 4.543 3.696 8.231 8.23 8.231a8.19 8.19 0 0 0 4.93-1.643c.036.05.08.093.115.129l4.708 4.707c.236.223.53.345.832.345a1.184 1.184 0 0 0 1.177-1.098v-.165a1.2 1.2 0 0 0-.345-.753l-4.707-4.708c-.036-.036-.079-.086-.13-.115a8.175 8.175 0 0 0 1.644-4.93C18.458 5.69 14.763 2 10.228 2 5.7 1.993 2.004 5.689 2.004 10.231Z"/>
</svg>
