<svg xmlns="http://www.w3.org/2000/svg" width="24" height="24" fill="none" viewBox="0 0 24 24">
  <path fill="#36AA8E" d="M10.987 13.01v-1.39a1.484 1.484 0 0 1-.499-1.106 1.498 1.498 0 0 1 2.996 0c0 .44-.192.836-.5 1.107v1.39a.996.996 0 0 1-.998.999.996.996 0 0 1-.999-1Zm.981-10.998a1.41 1.41 0 0 0-.62.169c-.078.042-.168.09-.325.198a17.242 17.242 0 0 1-2.569 1.456c-1.251.566-2.448.885-3.652.98l-.144.013c-.259.018-.367.03-.47.048-.547.09-.914.38-1.082.842a1.86 1.86 0 0 0-.102.62l.006 1.348c0 2.37-.012 3.418-.006 4.735 0 .433.024.843.072 1.216.162 1.317.674 2.533 1.51 3.622.698.908 1.558 1.72 2.63 2.479 1.214.86 2.598 1.57 4.235 2.166.162.06.33.09.499.096h.078c.205-.006.41-.054.62-.138l.86-.361c.909-.386 1.438-.638 1.956-.927 1.684-.945 2.99-2.064 4-3.412.644-.854 1.072-1.72 1.306-2.635.139-.541.205-1.113.21-1.986.007-.529.007-.95.007-1.913l.006-1.805c.012-.379 0-.379 0-.764V6.32c0-.44-.157-1.221-1.191-1.432a7.716 7.716 0 0 0-.674-.096l-.205-.024a10.822 10.822 0 0 1-2.858-.722c-.98-.391-1.949-.915-3.038-1.649-.175-.12-.283-.18-.373-.235A1.412 1.412 0 0 0 12.046 2h-.078v.012Z"/>
</svg>
