<svg xmlns="http://www.w3.org/2000/svg" width="24" height="24" fill="none" viewBox="0 0 24 24">
  <path fill="#36AA8E" d="M4.995 17.715H3.427a.952.952 0 1 0 0 1.906h1.568A3.331 3.331 0 0 0 8.191 22c1.51 0 2.788-1 3.196-2.38h9.186a.952.952 0 1 0 0-1.905h-9.186a3.331 3.331 0 0 0-3.196-2.38c-1.515 0-2.787 1-3.196 2.38Zm7.618-6.67H3.427a.952.952 0 1 0 0 1.905h9.186a3.331 3.331 0 0 0 3.196 2.38 3.338 3.338 0 0 0 3.196-2.38h1.568a.952.952 0 1 0 0-1.906h-1.568a3.331 3.331 0 0 0-3.196-2.38 3.338 3.338 0 0 0-3.196 2.38ZM9.144 2a3.338 3.338 0 0 0-3.196 2.38H3.427a.952.952 0 1 0 0 1.905h2.521a3.331 3.331 0 0 0 3.196 2.38 3.338 3.338 0 0 0 3.196-2.38h8.233a.952.952 0 1 0 0-1.906H12.34A3.336 3.336 0 0 0 9.144 2Z"/>
</svg>
