<svg xmlns="http://www.w3.org/2000/svg" width="22" height="20" fill="none" viewBox="0 0 22 20">
  <g clip-path="url(#a)">
    <path fill="#36AA8E" d="M20.074 19.677H.651V.323h19.423v19.354Zm-10.72-8.222c.017.02.028.03.037.042 1.269 1.696 2.537 3.39 3.803 5.088.065.088.13.123.24.123 1.283-.003 2.566-.002 3.848-.002h.187L11.656 8.99c1.77-1.897 3.531-3.781 5.32-5.697-.397 0-.743-.003-1.089.004-.052 0-.114.041-.152.082-.207.216-.408.438-.612.657a9740.609 9740.609 0 0 1-3.44 3.672l-.548.579c-.038-.047-.068-.08-.095-.116L7.47 3.429c-.06-.079-.113-.14-.234-.14-1.272.007-2.544.004-3.817.005-.042 0-.085.007-.152.012l5.566 7.443-5.577 5.957c.41 0 .771.002 1.132-.003.044 0 .096-.036.128-.07.741-.79 1.48-1.583 2.22-2.375l2.619-2.803Z"/>
    <path fill="#fff" d="m9.354 11.455-2.62 2.802c-.74.792-1.477 1.585-2.219 2.376-.032.034-.084.069-.128.07-.36.005-.721.003-1.132.003l5.577-5.957C6.977 8.27 5.129 5.8 3.266 3.306c.067-.005.11-.012.152-.012 1.273 0 2.545.002 3.817-.004.121 0 .174.06.233.139l3.572 4.743c.027.035.057.07.095.116.188-.2.37-.388.548-.58l3.44-3.672c.204-.218.404-.44.612-.657.038-.04.1-.08.152-.081.346-.008.691-.004 1.09-.004L11.656 8.99l5.813 7.715h-.187c-1.282 0-2.565-.002-3.847.002a.268.268 0 0 1-.242-.123c-1.264-1.698-2.533-3.392-3.801-5.088l-.038-.042Zm-4.297-7.27.264.352 4.88 6.46c1.168 1.546 2.336 3.09 3.501 4.638a.266.266 0 0 0 .243.121c.527-.006 1.055-.003 1.582-.003h.165c-.037-.055-.051-.076-.067-.096l-4.122-5.484c-1.48-1.968-2.958-3.936-4.44-5.902A.24.24 0 0 0 6.9 4.19c-.243-.008-.486-.003-.73-.003H5.058Z"/>
    <path fill="#36AA8E" d="M5.057 4.186h1.115c.243 0 .486-.005.728.003a.24.24 0 0 1 .162.082c1.483 1.966 2.962 3.934 4.441 5.902l4.122 5.484c.015.02.03.041.067.096h-.165c-.527 0-1.055-.003-1.582.003a.266.266 0 0 1-.243-.121c-1.165-1.547-2.333-3.092-3.5-4.637L5.32 4.537l-.264-.351Z"/>
  </g>
  <defs>
    <clipPath id="a">
      <path fill="#fff" d="M.651.323h20.968v19.355H.651z"/>
    </clipPath>
  </defs>
</svg>
