<svg xmlns="http://www.w3.org/2000/svg" width="26" height="26" fill="none" viewBox="0 0 26 26">
  <path stroke="#1FA455" stroke-linejoin="round" stroke-width="2.167" d="M12.785 24.486c6.232 0 11.284-5.052 11.284-11.285 0-6.232-5.052-11.285-11.284-11.285C6.552 1.916 1.5 6.97 1.5 13.201c0 6.233 5.052 11.285 11.285 11.285Z"/>
  <path stroke="#1FA455" stroke-linecap="round" stroke-linejoin="round" stroke-width="2.167" d="M12.785 19.408c2.82 0 3.95-2.257 3.95-2.257h-7.9s1.128 2.257 3.95 2.257Zm-1.693-7.899s-.564-2.257-2.257-2.257-2.257 2.257-2.257 2.257m12.412 0s-.563-2.257-2.256-2.257c-1.693 0-2.257 2.257-2.257 2.257"/>
</svg>
